:FULLY-SPECIFIED
:FORCE-ALL-JOINTS-BE-3DOF
:DEGREES
17
root 7.87446 16.0538 -34.3591 6.77736 -2.20466 -2.6781
lfemur -37.6683 6.74595 -18.1844
ltibia 41.3348 -0 0
lfoot -13.396 8.07619 -0.00811848
ltoes -9.71425 0 0
rfemur -7.58459 3.17479 26.3253
rtibia 31.6099 -0 0
rfoot 2.64149 -2.52077 -0.163866
rtoes -0.375444 0 0
lowerback -4.52236 0.297409 0.127107
upperback -1.73014 0.359175 2.56686
thorax 0.734534 0.187305 2.5854
lowerneck -19.6463 -4.9089 -12.9135
upperneck 14.7136 -6.17315 15.86
head 8.78524 -2.09525 6.81927
lclavicle 5.33256e-15 1.40257e-14 -4.62402e-32
lhumerus -37.1621 -3.34101 86.8317
lradius 25.5965 -0 0
lwrist 4.33222 0 0
lhand -9.00783 -21.4872 0.162276
lfingers 7.12502 -0 0
lthumb 16.9273 7.64416 0.109493
rclavicle 5.33256e-15 1.40257e-14 -4.62402e-32
rhumerus -40.0071 16.5854 -86.0723
rradius 51.4311 -0 0
rwrist -26.1548 0 0
rhand -32.2433 -25.7565 -0.000122769
rfingers 7.12502 -0 0
rthumb -5.48343 -55.6599 -0.000578423
18
root 7.89999 16.0575 -34.2108 6.75431 -2.42443 -2.6155
lfemur -37.4797 6.76934 -18.2984
ltibia 41.1738 -0 0
lfoot -13.3196 8.05928 -0.00843423
ltoes -9.58085 0 0
rfemur -7.43677 3.08292 26.0869
rtibia 32.078 -0 0
rfoot 2.80679 -2.67854 -0.170245
rtoes -0.398909 0 0
lowerback -4.53636 0.304054 0.076324
upperback -1.74335 0.37005 2.56745
thorax 0.727649 0.19304 2.61529
lowerneck -19.708 -4.89208 -12.8871
upperneck 14.778 -6.1439 15.7938
head 8.80991 -2.0835 6.79737
lclavicle 5.26983e-15 1.39084e-14 -4.80385e-32
lhumerus -37.2394 -3.36325 86.868
lradius 25.4834 -0 0
lwrist 4.14639 0 0
lhand -8.73943 -21.391 0.168596
lfingers 7.12502 -0 0
lthumb 17.1851 7.71176 0.113757
rclavicle 5.26983e-15 1.39084e-14 -4.80385e-32
rhumerus -40.0832 16.5297 -86.1944
rradius 51.1331 -0 0
rwrist -26.0039 0 0
rhand -32.1834 -25.7568 -0.000127543
rfingers 7.12502 -0 0
rthumb -5.4256 -55.6615 -0.000600918
19
root 7.92553 16.0613 -34.0625 6.73101 -2.64417 -2.5528
lfemur -37.2912 6.7931 -18.4123
ltibia 41.0128 -0 0
lfoot -13.2432 8.04237 -0.00872744
ltoes -9.44745 0 0
rfemur -7.28859 2.99167 25.8483
rtibia 32.5461 -0 0
rfoot 2.9721 -2.83632 -0.176169
rtoes -0.422374 0 0
lowerback -4.55037 0.310686 0.0255398
upperback -1.75655 0.380925 2.56804
thorax 0.720768 0.198779 2.64518
lowerneck -19.7696 -4.87523 -12.8608
upperneck 14.8422 -6.11457 15.7277
head 8.83457 -2.07174 6.77548
lclavicle 5.2071e-15 1.37911e-14 -4.97082e-32
lhumerus -37.3168 -3.38544 86.9044
lradius 25.3704 -0 0
lwrist 3.96056 0 0
lhand -8.47101 -21.2948 0.174466
lfingers 7.12502 -0 0
lthumb 17.4429 7.77937 0.117716
rclavicle 5.2071e-15 1.37911e-14 -4.97082e-32
rhumerus -40.1593 16.4738 -86.3164
rradius 50.8351 -0 0
rwrist -25.853 0 0
rhand -32.1235 -25.7572 -0.000131977
rfingers 7.12502 -0 0
rthumb -5.36777 -55.663 -0.000621807
20
root 7.95106 16.065 -33.9142 6.70747 -2.86389 -2.48999
lfemur -37.1028 6.81724 -18.5262
ltibia 40.8518 -0 0
lfoot -13.1668 8.02546 -0.00899809
ltoes -9.31404 0 0
rfemur -7.14004 2.90103 25.6094
rtibia 33.0143 -0 0
rfoot 3.13744 -2.99412 -0.181637
rtoes -0.44584 0 0
lowerback -4.56438 0.317307 -0.0252461
upperback -1.76975 0.391801 2.56863
thorax 0.713889 0.204521 2.67507
lowerneck -19.8313 -4.85835 -12.8345
upperneck 14.9065 -6.08517 15.6616
head 8.85923 -2.05998 6.7536
lclavicle 5.14437e-15 1.36738e-14 -5.12496e-32
lhumerus -37.3942 -3.40758 86.9408
lradius 25.2573 -0 0
lwrist 3.77472 0 0
lhand -8.20259 -21.1985 0.179885
lfingers 7.12502 -0 0
lthumb 17.7007 7.84701 0.121372
rclavicle 5.14437e-15 1.36738e-14 -5.12496e-32
rhumerus -40.2351 16.4178 -86.4383
rradius 50.5371 -0 0
rwrist -25.702 0 0
rhand -32.0636 -25.7575 -0.000136069
rfingers 7.12502 -0 0
rthumb -5.30994 -55.6646 -0.000641089
21
root 7.97659 16.0688 -33.7658 6.68368 -3.08359 -2.42709
lfemur -36.9143 6.84174 -18.6399
ltibia 40.6908 -0 0
lfoot -13.0904 8.00855 -0.00924619
ltoes -9.18064 0 0
rfemur -6.99113 2.81101 25.3704
rtibia 33.4824 -0 0
rfoot 3.30279 -3.15194 -0.18665
rtoes -0.469305 0 0
lowerback -4.5784 0.323915 -0.0760336
upperback -1.78296 0.402677 2.56921
thorax 0.707014 0.210267 2.70496
lowerneck -19.893 -4.84145 -12.8082
upperneck 14.9706 -6.0557 15.5955
head 8.88388 -2.0482 6.73172
lclavicle 5.08164e-15 1.35565e-14 -5.26625e-32
lhumerus -37.4716 -3.42967 86.9773
lradius 25.1442 -0 0
lwrist 3.58889 0 0
lhand -7.93415 -21.1022 0.184853
lfingers 7.12502 -0 0
lthumb 17.9585 7.91465 0.124723
rclavicle 5.08164e-15 1.35565e-14 -5.26625e-32
rhumerus -40.3108 16.3616 -86.56
rradius 50.2391 -0 0
rwrist -25.5511 0 0
rhand -32.0037 -25.7578 -0.000139821
rfingers 7.12502 -0 0
rthumb -5.25211 -55.6662 -0.000658765
22
root 8.00213 16.0725 -33.6175 6.65964 -3.30325 -2.36408
lfemur -36.726 6.86662 -18.7536
ltibia 40.5298 -0 0
lfoot -13.014 7.99164 -0.00947173
ltoes -9.04724 0 0
rfemur -6.84185 2.72162 25.1312
rtibia 33.9505 -0 0
rfoot 3.46815 -3.30977 -0.191207
rtoes -0.49277 0 0
lowerback -4.59243 0.33051 -0.126823
upperback -1.79616 0.413553 2.5698
thorax 0.700141 0.216017 2.73485
lowerneck -19.9546 -4.82452 -12.7819
upperneck 15.0348 -6.02615 15.5295
head 8.90853 -2.03642 6.70985
lclavicle 5.01891e-15 1.34392e-14 -5.39469e-32
lhumerus -37.549 -3.45172 87.0137
lradius 25.0312 -0 0
lwrist 3.40305 0 0
lhand -7.66571 -21.0059 0.189369
lfingers 7.12502 -0 0
lthumb 18.2163 7.98232 0.12777
rclavicle 5.01891e-15 1.34392e-14 -5.39469e-32
rhumerus -40.3864 16.3053 -86.6817
rradius 49.9411 -0 0
rwrist -25.4002 0 0
rhand -31.9438 -25.7582 -0.000143232
rfingers 7.12502 -0 0
rthumb -5.19428 -55.6678 -0.000674833
23
root 8.02766 16.0763 -33.4692 6.63536 -3.52289 -2.30096
lfemur -36.5376 6.89187 -18.8672
ltibia 40.3688 -0 0
lfoot -12.9376 7.97473 -0.00967473
ltoes -8.91384 0 0
rfemur -6.69221 2.63284 24.8917
rtibia 34.4186 -0 0
rfoot 3.63352 -3.46761 -0.195309
rtoes -0.516235 0 0
lowerback -4.60646 0.337093 -0.177614
upperback -1.80937 0.424429 2.57038
thorax 0.693271 0.22177 2.76474
lowerneck -20.0163 -4.80756 -12.7557
upperneck 15.0989 -5.99654 15.4635
head 8.93317 -2.02462 6.68798
lclavicle 4.95617e-15 1.33219e-14 -5.51029e-32
lhumerus -37.6264 -3.47371 87.0502
lradius 24.9181 -0 0
lwrist 3.21722 0 0
lhand -7.39726 -20.9095 0.193434
lfingers 7.12502 -0 0
lthumb 18.4741 8.04999 0.130512
rclavicle 4.95617e-15 1.33219e-14 -5.51029e-32
rhumerus -40.4618 16.2489 -86.8033
rradius 49.6431 -0 0
rwrist -25.2493 0 0
rhand -31.8839 -25.7585 -0.000146301
rfingers 7.12502 -0 0
rthumb -5.13645 -55.6694 -0.000689295
24
root 8.05319 16.08 -33.3209 6.61083 -3.74251 -2.23774
lfemur -36.3493 6.91749 -18.9808
ltibia 40.2078 -0 0
lfoot -12.8612 7.95782 -0.00985516
ltoes -8.78043 0 0
rfemur -6.54221 2.5447 24.652
rtibia 34.8868 -0 0
rfoot 3.79891 -3.62546 -0.198956
rtoes -0.539701 0 0
lowerback -4.6205 0.343663 -0.228406
upperback -1.82257 0.435305 2.57096
thorax 0.686405 0.227527 2.79462
lowerneck -20.0779 -4.79057 -12.7294
upperneck 15.163 -5.96684 15.3976
head 8.95781 -2.01282 6.66612
lclavicle 4.89344e-15 1.32045e-14 -5.61305e-32
lhumerus -37.7039 -3.49565 87.0868
lradius 24.805 -0 0
lwrist 3.03139 0 0
lhand -7.12881 -20.8132 0.197048
lfingers 7.12502 -0 0
lthumb 18.7319 8.11768 0.132949
rclavicle 4.89344e-15 1.32045e-14 -5.61305e-32
rhumerus -40.5371 16.1922 -86.9247
rradius 49.3451 -0 0
rwrist -25.0983 0 0
rhand -31.824 -25.7588 -0.000149029
rfingers 7.12502 -0 0
rthumb -5.07862 -55.671 -0.00070215
25
root 8.07872 16.0838 -33.1726 6.58605 -3.9621 -2.1744
lfemur -36.161 6.94348 -19.0942
ltibia 40.0468 -0 0
lfoot -12.7848 7.94091 -0.010013
ltoes -8.64703 0 0
rfemur -6.39185 2.45718 24.4121
rtibia 35.3549 -0 0
rfoot 3.9643 -3.78332 -0.202146
rtoes -0.563166 0 0
lowerback -4.63454 0.350221 -0.2792
upperback -1.83577 0.446181 2.57153
thorax 0.679541 0.233287 2.82451
lowerneck -20.1395 -4.77355 -12.7032
upperneck 15.227 -5.93708 15.3317
head 8.98245 -2.001 6.64426
lclavicle 4.83071e-15 1.30872e-14 -5.70296e-32
lhumerus -37.7813 -3.51755 87.1233
lradius 24.6919 -0 0
lwrist 2.84555 0 0
lhand -6.86035 -20.7168 0.20021
lfingers 7.12502 -0 0
lthumb 18.9897 8.18538 0.135082
rclavicle 4.83071e-15 1.30872e-14 -5.70296e-32
rhumerus -40.6123 16.1355 -87.046
rradius 49.0471 -0 0
rwrist -24.9474 0 0
rhand -31.7641 -25.7591 -0.000151417
rfingers 7.12502 -0 0
rthumb -5.02079 -55.6726 -0.000713398
26
root 8.10426 16.0876 -33.0243 6.56102 -4.18165 -2.11095
lfemur -35.9728 6.96984 -19.2076
ltibia 39.8858 -0 0
lfoot -12.7083 7.92399 -0.0101484
ltoes -8.51363 0 0
rfemur -6.24114 2.37029 24.172
rtibia 35.823 -0 0
rfoot 4.1297 -3.9412 -0.204881
rtoes -0.586631 0 0
lowerback -4.64859 0.356767 -0.329996
upperback -1.84898 0.457057 2.57211
thorax 0.672681 0.239051 2.8544
lowerneck -20.2012 -4.75651 -12.677
upperneck 15.291 -5.90724 15.2658
head 9.00708 -1.98918 6.62241
lclavicle 4.76798e-15 1.29699e-14 -5.78003e-32
lhumerus -37.8588 -3.5394 87.1599
lradius 24.5789 -0 0
lwrist 2.65972 0 0
lhand -6.59188 -20.6204 0.202921
lfingers 7.12502 -0 0
lthumb 19.2475 8.25308 0.136911
rclavicle 4.76798e-15 1.29699e-14 -5.78003e-32
rhumerus -40.6872 16.0785 -87.1673
rradius 48.7491 -0 0
rwrist -24.7965 0 0
rhand -31.7042 -25.7595 -0.000153463
rfingers 7.12502 -0 0
rthumb -4.96296 -55.6742 -0.000723039
27
root 8.12979 16.0913 -32.876 6.53574 -4.40119 -2.04739
lfemur -35.7846 6.99657 -19.3209
ltibia 39.7249 -0 0
lfoot -12.6319 7.90708 -0.0102612
ltoes -8.38022 0 0
rfemur -6.09007 2.28403 23.9317
rtibia 36.2912 -0 0
rfoot 4.29511 -4.09908 -0.207161
rtoes -0.610096 0 0
lowerback -4.66265 0.3633 -0.380793
upperback -1.86218 0.467934 2.57268
thorax 0.665823 0.244818 2.88428
lowerneck -20.2628 -4.73943 -12.6508
upperneck 15.355 -5.87732 15.2
head 9.0317 -1.97735 6.60056
lclavicle 4.70525e-15 1.28526e-14 -5.84425e-32
lhumerus -37.9363 -3.56119 87.1965
lradius 24.4658 -0 0
lwrist 2.47388 0 0
lhand -6.32341 -20.524 0.205179
lfingers 7.12502 -0 0
lthumb 19.5053 8.3208 0.138434
rclavicle 4.70525e-15 1.28526e-14 -5.84425e-32
rhumerus -40.7621 16.0214 -87.2884
rradius 48.4512 -0 0
rwrist -24.6456 0 0
rhand -31.6444 -25.7598 -0.000155168
rfingers 7.12502 -0 0
rthumb -4.90513 -55.6758 -0.000731074
